<svg width="25" height="26" viewBox="0 0 25 26" fill="none" xmlns="http://www.w3.org/2000/svg">
<g clip-path="url(#clip0_2_8)">
<path fill-rule="evenodd" clip-rule="evenodd" d="M4.49527 3.94322C4.10095 1.89274 5.67823 0 7.72871 0C9.54259 0 11.041 1.49842 11.041 3.3123V7.41325C11.5142 7.41325 11.9874 7.33439 12.4606 7.33439C12.9338 7.33439 13.3281 7.33439 13.8013 7.41325V3.3123C13.8013 1.49842 15.2997 0 17.1136 0C19.164 0 20.7413 1.89274 20.4259 3.94322L19.5584 8.75394C22.6341 10.0946 25 12.4606 25 15.3786V17.1924C25 19.6372 23.4227 21.6877 21.1356 23.0284C18.8486 24.448 15.8517 25.2366 12.4606 25.2366C9.0694 25.2366 6.07256 24.448 3.78549 23.0284C1.57729 21.6877 0 19.6372 0 17.1924V15.3786C0 12.4606 2.28707 10.0946 5.36278 8.75394L4.49527 3.94322ZM18.3754 9.38486L19.4006 3.70662C19.6372 2.28707 18.612 0.946372 17.1136 0.946372C15.8517 0.946372 14.8265 1.97161 14.8265 3.23344V8.43849C14.511 8.35962 14.1167 8.35962 13.8013 8.35962C13.3281 8.35962 12.9338 8.28076 12.4606 8.28076C11.9874 8.28076 11.5142 8.28076 11.041 8.35962C10.7256 8.35962 10.3312 8.43849 10.0158 8.43849V3.3123C10.0158 2.05047 8.99054 1.02524 7.72871 1.02524C6.30915 1.02524 5.20505 2.36593 5.5205 3.78549L6.54574 9.46372C3.23344 10.7256 1.02524 12.9338 1.02524 15.4574V17.2713C1.02524 21.1356 6.15142 24.2902 12.4606 24.2902C18.7697 24.2902 23.8959 21.1356 23.8959 17.2713V15.4574C23.9748 12.8549 21.7666 10.6467 18.3754 9.38486Z" fill="#633001"/>
<path d="M23.9748 17.1924C23.9748 21.0568 18.8486 24.2113 12.5394 24.2113C6.23028 24.2113 1.1041 21.0568 1.1041 17.1924V15.3785H24.0536V17.1924H23.9748Z" fill="#FEDC90"/>
<path fill-rule="evenodd" clip-rule="evenodd" d="M5.5205 3.78549C5.20504 2.36593 6.30914 1.02524 7.7287 1.02524C8.99053 1.02524 10.0158 2.05047 10.0158 3.3123V8.51735C10.8044 8.43849 11.5931 8.35962 12.4606 8.35962C13.2492 8.35962 14.0378 8.43849 14.8265 8.51735V3.3123C14.8265 2.05047 15.8517 1.02524 17.1136 1.02524C18.5331 1.02524 19.6372 2.36593 19.4006 3.78549L18.3754 9.46372C21.6877 10.7256 23.9748 12.9338 23.9748 15.4574C23.9748 19.3218 18.8486 22.4763 12.5394 22.4763C6.23028 22.4763 1.1041 19.3218 1.1041 15.4574C1.1041 12.9338 3.3123 10.7256 6.6246 9.46372L5.5205 3.78549Z" fill="#D1884F"/>
<path d="M9.30599 14.9054C9.30599 15.9306 8.75394 16.7981 8.04416 16.7981C7.33438 16.7981 6.78233 15.9306 6.78233 14.9054C6.78233 13.8801 7.33438 13.0126 8.04416 13.0126C8.75394 13.0126 9.30599 13.8801 9.30599 14.9054Z" fill="#633001"/>
<path d="M18.0599 14.9054C18.0599 15.9306 17.5079 16.7981 16.7981 16.7981C16.0883 16.7981 15.5363 15.9306 15.5363 14.9054C15.5363 13.8801 16.0883 13.0126 16.7981 13.0126C17.5079 13.0126 18.0599 13.8801 18.0599 14.9054Z" fill="#633001"/>
</g>
<defs>
<clipPath id="clip0_2_8">
<rect width="25" height="25.2366" fill="white"/>
</clipPath>
</defs>
</svg>
