<svg width="50" height="51" viewBox="0 0 50 51" fill="none" xmlns="http://www.w3.org/2000/svg">
<g clip-path="url(#clip0_2_2)">
<path fill-rule="evenodd" clip-rule="evenodd" d="M8.99054 7.88644C8.20189 3.78549 11.3565 0 15.4574 0C19.0852 0 22.082 2.99685 22.082 6.62461V14.8265C23.0284 14.8265 23.9748 14.6688 24.9211 14.6688C25.8675 14.6688 26.6562 14.6688 27.6025 14.8265V6.62461C27.6025 2.99685 30.5994 0 34.2271 0C38.3281 0 41.4826 3.78549 40.8517 7.88644L39.1167 17.5079C45.2681 20.1893 50 24.9211 50 30.7571V34.3849C50 39.2744 46.8454 43.3754 42.2713 46.0568C37.6972 48.8959 31.7035 50.4732 24.9211 50.4732C18.1388 50.4732 12.1451 48.8959 7.57098 46.0568C3.15457 43.3754 0 39.2744 0 34.3849V30.7571C0 24.9211 4.57413 20.1893 10.7256 17.5079L8.99054 7.88644ZM36.7508 18.7697L38.8013 7.41325C39.2744 4.57413 37.224 1.89274 34.2271 1.89274C31.7035 1.89274 29.653 3.94322 29.653 6.46688V16.877C29.0221 16.7192 28.2334 16.7192 27.6025 16.7192C26.6562 16.7192 25.8675 16.5615 24.9211 16.5615C23.9748 16.5615 23.0284 16.5615 22.082 16.7192C21.4511 16.7192 20.6625 16.877 20.0315 16.877V6.62461C20.0315 4.10095 17.9811 2.05047 15.4574 2.05047C12.6183 2.05047 10.4101 4.73186 11.041 7.57098L13.0915 18.9274C6.46688 21.4511 2.05047 25.8675 2.05047 30.9148V34.5426C2.05047 42.2713 12.3028 48.5804 24.9211 48.5804C37.5394 48.5804 47.7918 42.2713 47.7918 34.5426V30.9148C47.9495 25.7098 43.5331 21.2934 36.7508 18.7697Z" fill="#633001"/>
<path d="M47.9495 34.3849C47.9495 42.1136 37.6972 48.4227 25.0789 48.4227C12.4606 48.4227 2.20819 42.1136 2.20819 34.3849V30.7571H48.1072V34.3849H47.9495Z" fill="#FEDC90"/>
<path fill-rule="evenodd" clip-rule="evenodd" d="M11.041 7.57098C10.4101 4.73186 12.6183 2.05048 15.4574 2.05048C17.9811 2.05048 20.0315 4.10095 20.0315 6.62461V17.0347C21.6088 16.877 23.1861 16.7192 24.9211 16.7192C26.4984 16.7192 28.0757 16.877 29.653 17.0347V6.62461C29.653 4.10095 31.7035 2.05048 34.2271 2.05048C37.0662 2.05048 39.2744 4.73186 38.8013 7.57098L36.7508 18.9274C43.3754 21.4511 47.9495 25.8675 47.9495 30.9148C47.9495 38.6435 37.6972 44.9527 25.0789 44.9527C12.4606 44.9527 2.20819 38.6435 2.20819 30.9148C2.20819 25.8675 6.62459 21.4511 13.2492 18.9274L11.041 7.57098Z" fill="#D1884F"/>
<path d="M18.612 29.8107C18.612 31.8612 17.5079 33.5962 16.0883 33.5962C14.6688 33.5962 13.5647 31.8612 13.5647 29.8107C13.5647 27.7603 14.6688 26.0252 16.0883 26.0252C17.5079 26.0252 18.612 27.7603 18.612 29.8107Z" fill="#633001"/>
<path d="M36.1199 29.8107C36.1199 31.8612 35.0158 33.5962 33.5962 33.5962C32.1767 33.5962 31.0726 31.8612 31.0726 29.8107C31.0726 27.7603 32.1767 26.0252 33.5962 26.0252C35.0158 26.0252 36.1199 27.7603 36.1199 29.8107Z" fill="#633001"/>
</g>
<defs>
<clipPath id="clip0_2_2">
<rect width="50" height="50.4732" fill="white"/>
</clipPath>
</defs>
</svg>
